# xmcd CD database file
#
# Track frame offsets:
#	150
#	20329
#	45848
#	62824
#	83728
#	109204
#	134445
#	165086
#	187127
#	204820
#	224326
#	253990
#	279125
#	296640
#
# Disc length: 4437 seconds
#
# Revision: 0
# Processed by: cddbd v1.5.1PL0 Copyright (c) Steve Scherf et al.
# Submitted via: CDex 1.51
#
DISCID=c311530e
DTITLE=Varius Artists - Blues to Bop and World Music Festival - Lugano 27 agosto - 01 settembre 1996
DYEAR=1996
DGENRE=Blues
TTITLE0=Steve Williams Blues Deluxe - Prison Of Love
TTITLE1=Abe Reid And The Blues Rags - Baby Take Me Back
TTITLE2=Abe Reid And The Blues Rags - Ger High Everibody Get High
TTITLE3=Abe Reid And The Blues Rags - I Got Rhythm
TTITLE4=Deanna Bogart - Hello Little Man
TTITLE5=Microwave Dave and The Nukes - Pay Bo Diddley
TTITLE6=Jerry McCain - Bum The Crackhouse Down
TTITLE7=The dave Keyes Band - Choo Choo Ch'Boogie
TTITLE8=Chinthia Green and Jimmy Dillon - Tears In Heaven
TTITLE9=Abe Reid And The Blues Rags -  Working On The Building
TTITLE10=Abe Reid And The Blues Rags with The Lucas Sisters - Amazing Graze
TTITLE11=Aubrey Ghent - Can't Nobody Do Me Like Jesus
TTITLE12=The Lucas Sisters - Walk and Talk
TTITLE13=All togheter - When the Saints Go Marching In
EXTD=YEAR: 1996
EXTT0=
EXTT1=
EXTT2=
EXTT3=
EXTT4=
EXTT5=
EXTT6=
EXTT7=
EXTT8=
EXTT9=
EXTT10=
EXTT11=
EXTT12=
EXTT13=
PLAYORDER=
